<?xml version="1.0" encoding="UTF-8" standalone="no"?>
<svg
   xmlns:dc="http://purl.org/dc/elements/1.1/"
   xmlns:cc="http://creativecommons.org/ns#"
   xmlns:rdf="http://www.w3.org/1999/02/22-rdf-syntax-ns#"
   xmlns:svg="http://www.w3.org/2000/svg"
   xmlns="http://www.w3.org/2000/svg"
   xmlns:xlink="http://www.w3.org/1999/xlink"
   xmlns:sodipodi="http://sodipodi.sourceforge.net/DTD/sodipodi-0.dtd"
   xmlns:inkscape="http://www.inkscape.org/namespaces/inkscape"
   width="320"
   height="320"
   viewBox="0 0 84.666664 84.666668"
   version="1.1"
   id="svg8"
   inkscape:version="1.0 (4035a4fb49, 2020-05-01)"
   sodipodi:docname="logo2.svg"
   inkscape:export-filename="C:\Users\Gabriele\Projects\pytest-austin\art\logo.png"
   inkscape:export-xdpi="96"
   inkscape:export-ydpi="96">
  <defs
     id="defs2">
    <linearGradient
       id="linearGradient1071"
       inkscape:collect="always">
      <stop
         id="stop1067"
         offset="0"
         style="stop-color:#050505;stop-opacity:1;" />
      <stop
         id="stop1069"
         offset="1"
         style="stop-color:#131313;stop-opacity:1" />
    </linearGradient>
    <rect
       x="-13.259014"
       y="186.85986"
       width="86.178571"
       height="20.977679"
       id="rect976" />
    <inkscape:path-effect
       effect="powermask"
       id="path-effect912"
       is_visible="true"
       lpeversion="1"
       uri="#mask-powermask-path-effect912"
       invert="false"
       hide_mask="false"
       background="true"
       background_color="#ffffffff" />
    <inkscape:path-effect
       effect="powermask"
       id="path-effect871"
       is_visible="true"
       lpeversion="1"
       uri="#mask-powermask-path-effect871"
       invert="false"
       hide_mask="false"
       background="true"
       background_color="#ffffffff" />
    <linearGradient
       inkscape:collect="always"
       id="linearGradient1630">
      <stop
         style="stop-color:#0e0e0e;stop-opacity:1;"
         offset="0"
         id="stop1626" />
      <stop
         id="stop1634"
         offset="0.43542713"
         style="stop-color:#000000;stop-opacity:1" />
      <stop
         style="stop-color:#0e0e0e;stop-opacity:1"
         offset="1"
         id="stop1628" />
    </linearGradient>
    <linearGradient
       inkscape:collect="always"
       xlink:href="#linearGradient1630"
       id="linearGradient1632"
       x1="10.772322"
       y1="72.571426"
       x2="74.272324"
       y2="10.205358"
       gradientUnits="userSpaceOnUse" />
    <filter
       inkscape:collect="always"
       style="color-interpolation-filters:sRGB"
       id="filter900"
       x="-0.041416707"
       width="1.0828334"
       y="-0.057071693"
       height="1.1141434">
      <feGaussianBlur
         inkscape:collect="always"
         stdDeviation="0.92294912"
         id="feGaussianBlur902" />
    </filter>
    <mask
       maskUnits="userSpaceOnUse"
       id="mask-powermask-path-effect912">
      <path
         d="m 16.430832,233.14533 h 55.482714 v 42.52938 H 16.430832 Z"
         style="fill:#ffffff;fill-opacity:1"
         id="mask-powermask-path-effect912_box" />
      <g
         id="g910"
         style="filter:url(#filter900)">
        <path
           style="fill:none;fill-opacity:1;stroke:#000000;stroke-width:3.43275;stroke-linecap:butt;stroke-linejoin:miter;stroke-miterlimit:4;stroke-dasharray:none;stroke-opacity:1"
           d="m 40.351641,261.50665 c 0,0 -1.34366,9.33552 -2.884093,10.53321 -2.369992,1.84268 -13.969185,0.56436 -14.96049,-0.81374 -1.568639,-2.18073 -2.660037,-9.93081 -2.660037,-9.93081 h 47.317463 c 0,0 -1.091401,7.75008 -2.660049,9.93081 -0.991309,1.3781 -12.59056,2.65642 -14.960554,0.81374 -1.540433,-1.19769 -2.884093,-10.53321 -2.884093,-10.53321"
           id="path906"
           inkscape:connector-curvature="0"
           sodipodi:nodetypes="cssccssc" />
        <path
           style="fill:#000000;fill-opacity:1;stroke:none;stroke-width:0.128834px;stroke-linecap:butt;stroke-linejoin:miter;stroke-opacity:1"
           d="m 59.085412,247.71168 c 0,0 -2.629662,8.58505 -5.443622,10.62695 -5.281123,3.83219 -14.989756,4.2786 -21.40989,4.99467 -6.329807,0.70601 -14.801068,-0.32344 -14.801068,-0.32344 0,0 0.555782,-14.05688 5.756223,-19.52316 5.560126,-5.84435 11.69791,-8.02723 18.480115,-8.97978 6.977884,-0.98002 14.811943,-0.0333 20.82267,3.64397 3.01219,1.84282 6.549529,5.87718 7.757298,9.1954 1.990917,5.46986 -1.113537,16.51874 -1.113537,16.51874 0,0 -1.448861,-7.01956 -4.175486,-9.75958 -4.958695,-4.98304 -5.872703,-6.39377 -5.872703,-6.39377 z"
           id="path908"
           inkscape:connector-curvature="0"
           sodipodi:nodetypes="csscsssscsc" />
      </g>
    </mask>
    <filter
       id="mask-powermask-path-effect912_inverse"
       inkscape:label="filtermask-powermask-path-effect912"
       style="color-interpolation-filters:sRGB"
       height="100"
       width="100"
       x="-50"
       y="-50">
      <feColorMatrix
         id="mask-powermask-path-effect912_primitive1"
         values="1"
         type="saturate"
         result="fbSourceGraphic" />
      <feColorMatrix
         id="mask-powermask-path-effect912_primitive2"
         values="-1 0 0 0 1 0 -1 0 0 1 0 0 -1 0 1 0 0 0 1 0 "
         in="fbSourceGraphic" />
    </filter>
    <rect
       id="rect886"
       height="20.977679"
       width="86.178571"
       y="186.85986"
       x="-13.259014" />
    <rect
       x="-13.259014"
       y="186.85986"
       width="86.178574"
       height="20.977678"
       id="rect886-3" />
    <rect
       x="-13.259014"
       y="186.85986"
       width="86.178574"
       height="20.977678"
       id="rect899" />
    <rect
       id="rect976-1"
       height="20.977678"
       width="86.178574"
       y="186.85986"
       x="-13.259014" />
    <rect
       id="rect902"
       height="20.977678"
       width="86.178574"
       y="186.85986"
       x="-13.259014" />
    <rect
       x="-13.259014"
       y="186.85986"
       width="86.178574"
       height="20.977678"
       id="rect950" />
    <rect
       id="rect952"
       height="20.977678"
       width="86.178574"
       y="186.85986"
       x="-13.259014" />
    <linearGradient
       gradientUnits="userSpaceOnUse"
       y2="228.04482"
       x2="50.791588"
       y1="261.50665"
       x1="40.351643"
       id="linearGradient1073"
       xlink:href="#linearGradient1071"
       inkscape:collect="always" />
    <linearGradient
       y2="228.04482"
       x2="50.791588"
       y1="261.50665"
       x1="40.351643"
       gradientUnits="userSpaceOnUse"
       id="linearGradient1081"
       xlink:href="#linearGradient1071"
       inkscape:collect="always" />
    <linearGradient
       y2="10.205358"
       x2="74.272324"
       y1="72.571426"
       x1="10.772322"
       gradientUnits="userSpaceOnUse"
       id="linearGradient1095"
       xlink:href="#linearGradient1630"
       inkscape:collect="always" />
  </defs>
  <sodipodi:namedview
     id="base"
     pagecolor="#ffffff"
     bordercolor="#666666"
     borderopacity="1.0"
     inkscape:pageopacity="0"
     inkscape:pageshadow="2"
     inkscape:zoom="1.4"
     inkscape:cx="86.252237"
     inkscape:cy="286.70323"
     inkscape:document-units="mm"
     inkscape:current-layer="g948"
     showgrid="false"
     inkscape:window-width="1920"
     inkscape:window-height="1057"
     inkscape:window-x="-8"
     inkscape:window-y="595"
     inkscape:window-maximized="1"
     units="px"
     fit-margin-top="0"
     fit-margin-left="0"
     fit-margin-right="0"
     fit-margin-bottom="0"
     inkscape:document-rotation="0" />
  <metadata
     id="metadata5">
    <rdf:RDF>
      <cc:Work
         rdf:about="">
        <dc:format>image/svg+xml</dc:format>
        <dc:type
           rdf:resource="http://purl.org/dc/dcmitype/StillImage" />
        <dc:title />
      </cc:Work>
    </rdf:RDF>
  </metadata>
  <g
     inkscape:groupmode="layer"
     id="layer2"
     inkscape:label="crash_test"
     style="display:inline">
    <g
       id="g1643"
       mask="none">
      <circle
         r="41.766373"
         cy="42.333332"
         cx="42.333332"
         id="path1602"
         style="fill:url(#linearGradient1632);fill-opacity:1;stroke-width:3.175" />
      <path
         sodipodi:arc-type="slice"
         sodipodi:end="1.5707963"
         sodipodi:start="0"
         sodipodi:ry="41.766373"
         sodipodi:rx="41.766373"
         sodipodi:cy="42.333332"
         sodipodi:cx="42.333332"
         sodipodi:type="arc"
         style="fill:#f3d300;fill-opacity:1;stroke-width:3.175"
         id="circle1622"
         d="M 84.099705,42.333332 A 41.766373,41.766373 0 0 1 42.333332,84.099705 V 42.333332 Z" />
      <path
         sodipodi:arc-type="slice"
         sodipodi:end="4.712389"
         sodipodi:start="3.1415927"
         sodipodi:ry="41.766373"
         sodipodi:rx="41.766373"
         sodipodi:cy="42.333332"
         sodipodi:cx="42.333332"
         sodipodi:type="arc"
         style="fill:#f3d300;fill-opacity:1;stroke-width:3.175"
         id="circle1624"
         d="M 0.56695938,42.333332 A 41.766373,41.766373 0 0 1 42.333332,0.56695938 V 42.333332 Z" />
    </g>
    <g
       transform="matrix(-0.24434396,0,0,0.24434396,52.677226,31.989438)"
       mask="none"
       id="g1093">
      <circle
         style="fill:url(#linearGradient1095);fill-opacity:1;stroke-width:3.175"
         id="circle1087"
         cx="42.333332"
         cy="42.333332"
         r="41.766373" />
      <path
         d="M 84.099705,42.333332 A 41.766373,41.766373 0 0 1 42.333332,84.099705 V 42.333332 Z"
         id="path1089"
         style="fill:#f3d300;fill-opacity:1;stroke-width:3.175"
         sodipodi:type="arc"
         sodipodi:cx="42.333332"
         sodipodi:cy="42.333332"
         sodipodi:rx="41.766373"
         sodipodi:ry="41.766373"
         sodipodi:start="0"
         sodipodi:end="1.5707963"
         sodipodi:arc-type="slice" />
      <path
         d="M 0.56695938,42.333332 A 41.766373,41.766373 0 0 1 42.333332,0.56695938 V 42.333332 Z"
         id="path1091"
         style="fill:#f3d300;fill-opacity:1;stroke-width:3.175"
         sodipodi:type="arc"
         sodipodi:cx="42.333332"
         sodipodi:cy="42.333332"
         sodipodi:rx="41.766373"
         sodipodi:ry="41.766373"
         sodipodi:start="3.1415927"
         sodipodi:end="4.712389"
         sodipodi:arc-type="slice" />
    </g>
  </g>
  <g
     style="display:none"
     inkscape:label="crash_test path"
     id="g1009"
     inkscape:groupmode="layer">
    <path
       style="color:#000000;font-style:normal;font-variant:normal;font-weight:normal;font-stretch:normal;font-size:medium;line-height:normal;font-family:sans-serif;font-variant-ligatures:normal;font-variant-position:normal;font-variant-caps:normal;font-variant-numeric:normal;font-variant-alternates:normal;font-variant-east-asian:normal;font-feature-settings:normal;font-variation-settings:normal;text-indent:0;text-align:start;text-decoration:none;text-decoration-line:none;text-decoration-style:solid;text-decoration-color:#000000;letter-spacing:normal;word-spacing:normal;text-transform:none;writing-mode:lr-tb;direction:ltr;text-orientation:mixed;dominant-baseline:auto;baseline-shift:baseline;text-anchor:start;white-space:normal;shape-padding:0;shape-margin:0;inline-size:0;clip-rule:nonzero;display:inline;overflow:visible;visibility:visible;isolation:auto;mix-blend-mode:normal;color-interpolation:sRGB;color-interpolation-filters:linearRGB;solid-color:#000000;solid-opacity:1;vector-effect:none;fill:#000000;fill-opacity:1;fill-rule:nonzero;stroke:none;stroke-width:2.67675;stroke-linecap:butt;stroke-linejoin:miter;stroke-miterlimit:4;stroke-dasharray:none;stroke-dashoffset:0;stroke-opacity:1;color-rendering:auto;image-rendering:auto;shape-rendering:auto;text-rendering:auto;enable-background:accumulate;stop-color:#000000"
       d="M 10.679231,24.057033 C 0.59404326,41.52509 6.5900406,63.902457 24.058098,73.987645 41.526155,84.072832 63.902096,78.076012 73.987284,60.607954 84.072471,43.139897 78.077076,20.764779 60.609019,10.679592 43.140962,0.59440464 20.764419,6.5889762 10.679231,24.057033 Z m 2.318705,1.338705 C 22.359811,9.1804941 43.055069,3.6364213 59.270314,12.998297 75.485559,22.360173 81.030455,43.054004 71.668579,59.269249 62.306703,75.484494 41.612047,81.030815 25.396803,71.66894 9.1815576,62.307064 3.6360594,41.610983 12.997936,25.395738 Z"
       id="path1015" />
  </g>
  <g
     transform="translate(-0.91509313,-214.07415)"
     inkscape:label="austin"
     inkscape:groupmode="layer"
     id="g963"
     style="display:inline">
    <g
       id="g961"
       transform="matrix(-0.29847796,0.33786351,-0.33786351,-0.29847796,124.59241,298.75586)">
      <path
         sodipodi:nodetypes="cssccssc"
         inkscape:connector-curvature="0"
         id="path957"
         d="m 40.351641,261.50665 c 0,0 -1.34366,9.33552 -2.884093,10.53321 -2.369992,1.84268 -13.969185,0.56436 -14.96049,-0.81374 -1.568639,-2.18073 -2.660037,-9.93081 -2.660037,-9.93081 h 47.317463 c 0,0 -1.091401,7.75008 -2.660049,9.93081 -0.991309,1.3781 -12.59056,2.65642 -14.960554,0.81374 -1.540433,-1.19769 -2.884093,-10.53321 -2.884093,-10.53321"
         style="fill:none;fill-opacity:1;stroke:#050505;stroke-width:3.43275;stroke-linecap:butt;stroke-linejoin:miter;stroke-miterlimit:4;stroke-dasharray:none;stroke-opacity:1" />
      <path
         sodipodi:nodetypes="csscsssscsc"
         inkscape:connector-curvature="0"
         id="path959"
         d="m 59.085412,247.71168 c 0,0 -2.629662,8.58505 -5.443622,10.62695 -5.281123,3.83219 -14.989756,4.2786 -21.40989,4.99467 -6.329807,0.70601 -14.801068,-0.32344 -14.801068,-0.32344 0,0 0.555782,-14.05688 5.756223,-19.52316 5.560126,-5.84435 11.69791,-8.02723 18.480115,-8.97978 6.977884,-0.98002 14.811943,-0.0333 20.82267,3.64397 3.01219,1.84282 6.549529,5.87718 7.757298,9.1954 1.990917,5.46986 -1.113537,16.51874 -1.113537,16.51874 0,0 -1.448861,-7.01956 -4.175486,-9.75958 -4.958695,-4.98304 -5.872703,-6.39377 -5.872703,-6.39377 z"
         style="fill:url(#linearGradient1073);fill-opacity:1;stroke:none;stroke-width:0.128834px;stroke-linecap:butt;stroke-linejoin:miter;stroke-opacity:1" />
    </g>
    <g
       transform="matrix(0.29847796,-0.33786351,0.33786351,0.29847796,-37.84504,213.78692)"
       id="g1079">
      <path
         style="fill:none;fill-opacity:1;stroke:#050505;stroke-width:3.43275;stroke-linecap:butt;stroke-linejoin:miter;stroke-miterlimit:4;stroke-dasharray:none;stroke-opacity:1"
         d="m 40.351641,261.50665 c 0,0 -1.34366,9.33552 -2.884093,10.53321 -2.369992,1.84268 -13.969185,0.56436 -14.96049,-0.81374 -1.568639,-2.18073 -2.660037,-9.93081 -2.660037,-9.93081 h 47.317463 c 0,0 -1.091401,7.75008 -2.660049,9.93081 -0.991309,1.3781 -12.59056,2.65642 -14.960554,0.81374 -1.540433,-1.19769 -2.884093,-10.53321 -2.884093,-10.53321"
         id="path1075"
         inkscape:connector-curvature="0"
         sodipodi:nodetypes="cssccssc" />
      <path
         style="fill:url(#linearGradient1081);fill-opacity:1;stroke:none;stroke-width:0.128834px;stroke-linecap:butt;stroke-linejoin:miter;stroke-opacity:1"
         d="m 59.085412,247.71168 c 0,0 -2.629662,8.58505 -5.443622,10.62695 -5.281123,3.83219 -14.989756,4.2786 -21.40989,4.99467 -6.329807,0.70601 -14.801068,-0.32344 -14.801068,-0.32344 0,0 0.555782,-14.05688 5.756223,-19.52316 5.560126,-5.84435 11.69791,-8.02723 18.480115,-8.97978 6.977884,-0.98002 14.811943,-0.0333 20.82267,3.64397 3.01219,1.84282 6.549529,5.87718 7.757298,9.1954 1.990917,5.46986 -1.113537,16.51874 -1.113537,16.51874 0,0 -1.448861,-7.01956 -4.175486,-9.75958 -4.958695,-4.98304 -5.872703,-6.39377 -5.872703,-6.39377 z"
         id="path1077"
         inkscape:connector-curvature="0"
         sodipodi:nodetypes="csscsssscsc" />
    </g>
  </g>
  <g
     style="display:inline"
     inkscape:groupmode="layer"
     id="g948"
     inkscape:label="pytest austin text">
    <text
       transform="rotate(-50.530192,42.748317,38.472632)"
       xml:space="preserve"
       id="text940"
       style="font-style:normal;font-weight:normal;font-size:10.5833px;line-height:1.25;font-family:sans-serif;white-space:pre;display:inline;fill:#f3d300;fill-opacity:1;stroke:none"><textPath
         id="textPath1030"
         xlink:href="#path1015"><tspan
           id="tspan938"><tspan
             style="font-style:normal;font-variant:normal;font-weight:normal;font-stretch:normal;font-family:'Droid Sans';-inkscape-font-specification:'Droid Sans';fill:#f3d300;fill-opacity:1"
             id="tspan936">pytest</tspan></tspan></textPath></text>
    <text
       transform="rotate(128.32157,40.57027,42.965683)"
       style="font-style:normal;font-weight:normal;font-size:10.5833px;line-height:1.25;font-family:sans-serif;white-space:pre;display:inline;fill:#f3d300;fill-opacity:1;stroke:none"
       id="text946"
       xml:space="preserve"><textPath
         id="textPath1034"
         xlink:href="#path1015"><tspan
           id="tspan944"><tspan
             style="font-style:normal;font-variant:normal;font-weight:normal;font-stretch:normal;font-family:'Droid Sans';-inkscape-font-specification:'Droid Sans';fill:#f3d300;fill-opacity:1"
             id="tspan942">austin</tspan></tspan></textPath></text>
  </g>
</svg>
